<svg width="30" height="30" viewBox="0 0 30 30" fill="none" xmlns="http://www.w3.org/2000/svg">
    <g clip-path="url(#clip0)">
        <path
            d="M27.2165 30.1992L0.453533 16.6234C-0.625301 16.0761 -0.625301 14.7075 0.453533 14.1602L27.2165 0.584413C28.2953 0.0371181 29.6444 0.721386 29.6444 1.81598L29.6444 28.9676C29.6444 30.0622 28.296 30.7465 27.2165 30.1992Z"
            fill="#9B7C0F" />
        <path
            d="M0.453675 16.6234L27.2166 30.1992C27.3781 30.2808 27.5451 30.327 27.7128 30.3569L1.83946 17.2321C0.760626 16.6849 0.760626 15.3163 1.83946 14.769L28.6024 1.19318C28.8442 1.07082 29.0985 1.01785 29.3494 1.00994C28.8948 0.438901 27.9906 0.192346 27.2166 0.584402L0.453675 14.1602C-0.625158 14.7075 -0.625158 16.0761 0.453675 16.6234Z"
            fill="#9B7C0F" />
        <path
            d="M27.2165 30.1992L0.453533 16.6234C-0.625301 16.0761 -0.625301 14.7075 0.453533 14.1602L27.2165 0.584413C28.2953 0.0371181 29.6444 0.721386 29.6444 1.81598L29.6444 28.9676C29.6444 30.0622 28.296 30.7465 27.2165 30.1992Z"
            stroke="#9B7C0F" stroke-miterlimit="10" />
    </g>
    <defs>
        <clipPath id="clip0">
            <rect width="30" height="30" fill="white" transform="translate(30 30) rotate(-180)" />
        </clipPath>
    </defs>
</svg>